<?xml version="1.0" standalone="no"?>
<!DOCTYPE svg PUBLIC "-//W3C//DTD SVG 20010904//EN"
 "http://www.w3.org/TR/2001/REC-SVG-20010904/DTD/svg10.dtd">
<svg version="1.0" xmlns="http://www.w3.org/2000/svg"
 width="469.000000pt" height="469.000000pt" viewBox="0 0 469.000000 469.000000"
 preserveAspectRatio="xMidYMid meet">
<metadata>
Created by potrace 1.14, written by Peter Selinger 2001-2017
</metadata>
<g transform="translate(0.000000,469.000000) scale(0.100000,-0.100000)"
fill="#000000" stroke="none">
<path d="M2317 4532 c-58 -132 -140 -437 -207 -773 -40 -202 -77 -404 -86
-474 -3 -22 -7 -46 -10 -53 -2 -8 -7 -37 -10 -65 -3 -29 -7 -57 -9 -64 -7 -21
33 -60 84 -82 138 -59 334 -66 476 -17 44 15 92 39 108 54 31 30 33 8 -14 282
-16 96 -32 189 -35 205 -2 17 -7 37 -9 45 -2 8 -7 31 -10 50 -13 77 -78 378
-126 575 -32 134 -112 355 -128 355 -4 0 -15 -17 -24 -38z"/>
<path d="M605 4353 c-207 -172 -332 -315 -438 -498 -57 -100 -101 -210 -134
-334 -22 -83 -26 -118 -27 -261 -1 -173 12 -265 56 -395 43 -131 147 -320 239
-434 l25 -32 135 388 134 388 -56 111 c-88 173 -115 292 -113 494 2 103 7 141
28 215 30 102 96 244 150 324 20 30 35 55 34 57 -2 1 -16 -9 -33 -23z"/>
<path d="M4045 4370 c5 -8 21 -33 36 -55 81 -120 142 -270 167 -410 9 -53 8
-268 -2 -324 -18 -106 -77 -257 -142 -368 -21 -36 -32 4 111 -408 43 -121 91
-259 107 -307 16 -49 33 -88 37 -88 9 0 30 29 98 130 94 140 156 283 199 460
20 79 27 342 12 425 -4 22 -10 54 -13 70 -16 79 -82 253 -131 341 -105 190
-283 393 -468 534 -18 13 -19 13 -11 0z"/>
<path d="M2766 3588 c30 -185 38 -212 72 -234 134 -91 201 -190 217 -320 3
-27 10 -76 15 -109 5 -33 12 -78 15 -100 3 -22 8 -51 10 -65 17 -99 16 -110
-12 -161 -15 -28 -47 -69 -72 -90 -40 -35 -205 -126 -256 -141 -191 -57 -261
-69 -395 -73 -84 -2 -227 13 -281 30 -10 4 -30 8 -44 11 -51 9 -121 36 -222
84 -113 55 -186 117 -220 190 l-22 45 19 125 c11 69 22 145 25 170 18 159 49
241 119 313 31 32 110 93 143 111 1 1 4 21 8 46 4 25 13 76 21 113 8 38 14 73
14 78 0 16 -37 10 -121 -21 -331 -121 -596 -411 -749 -820 -17 -47 -38 -101
-45 -120 -15 -36 -69 -225 -78 -270 -3 -14 -16 -78 -30 -142 -29 -130 -73
-407 -82 -508 -3 -36 -7 -81 -10 -100 -25 -204 -45 -590 -49 -939 l-2 -153 40
-26 c101 -64 387 -186 571 -244 213 -68 454 -116 665 -133 41 -4 85 -8 98 -10
12 -2 22 2 23 8 2 22 -2 191 -6 252 -7 98 -17 237 -20 275 -2 19 -6 69 -10
110 -3 41 -8 93 -10 115 -3 42 -15 163 -20 205 -2 14 -6 54 -10 90 -3 36 -8
74 -10 85 -1 11 -6 56 -11 100 -4 44 -9 83 -10 88 -1 4 -2 16 -3 26 -1 21 -17
26 -116 36 -239 24 -562 120 -750 223 -105 58 -99 44 -81 169 29 198 48 283
60 283 7 0 39 -9 72 -20 68 -24 350 -94 439 -110 33 -5 69 -12 80 -14 11 -2
52 -7 90 -11 39 -4 78 -9 87 -11 102 -18 546 -25 718 -10 286 24 584 80 819
156 35 11 67 20 72 20 11 0 16 -24 49 -248 l22 -142 -24 -20 c-98 -80 -431
-206 -619 -234 -20 -3 -42 -7 -50 -10 -13 -5 -47 -10 -141 -21 -24 -3 -61 -8
-84 -11 l-40 -5 -13 -107 c-7 -59 -14 -127 -17 -152 -3 -25 -7 -58 -9 -75 -5
-38 -22 -208 -31 -300 -4 -38 -8 -83 -9 -100 -2 -16 -6 -70 -10 -120 -4 -49
-9 -106 -10 -125 -4 -42 -18 -327 -18 -355 1 -38 3 -44 16 -40 6 2 50 6 97 9
47 4 101 9 120 11 72 11 176 28 195 32 136 28 141 29 215 48 84 21 279 87 394
132 103 41 323 148 347 169 14 13 16 37 14 167 -3 183 -14 503 -20 572 -2 28
-7 91 -10 140 -7 102 -13 162 -20 220 -2 22 -7 72 -10 110 -4 39 -8 77 -10 85
-2 8 -7 40 -10 70 -4 30 -16 107 -27 170 -11 63 -21 124 -23 135 -60 354 -206
732 -374 975 -62 90 -222 246 -306 302 -116 75 -171 100 -343 153 -9 3 -10 -6
-6 -37z"/>
<path d="M795 3269 c-12 -34 -149 -428 -160 -464 -8 -22 -43 -125 -80 -230
-97 -278 -165 -477 -165 -485 0 -8 7 -11 154 -79 59 -28 115 -52 123 -53 13
-2 20 24 39 132 28 169 31 186 38 208 3 9 7 28 10 42 36 204 175 586 277 761
48 83 49 90 19 99 -77 24 -217 69 -232 75 -11 4 -20 2 -23 -6z"/>
<path d="M3740 3235 c-76 -25 -134 -48 -132 -55 1 -6 14 -30 29 -53 28 -45
119 -234 148 -307 77 -197 172 -572 200 -785 11 -80 13 -85 38 -76 12 5 67 30
122 56 55 26 110 51 123 56 28 11 28 19 -4 110 -27 77 -125 359 -274 789 -93
269 -108 310 -112 309 -2 0 -64 -20 -138 -44z"/>
<path d="M1796 3072 c-6 -23 -14 -68 -21 -122 -3 -25 -10 -73 -16 -107 -23
-153 -23 -171 2 -198 117 -125 479 -218 709 -183 176 27 360 100 434 171 l43
42 -13 88 c-7 48 -15 102 -18 120 -2 18 -10 68 -16 112 -7 44 -14 83 -17 88
-7 12 -43 -13 -43 -31 0 -9 -10 -33 -21 -52 -67 -109 -237 -180 -449 -186
-267 -7 -491 91 -525 229 -9 35 -41 55 -49 29z"/>
</g>
</svg>
