<svg xmlns="http://www.w3.org/2000/svg" width="754" height="510" viewBox="0 0 754 510">
  <g id="Group_252" data-name="Group 252" transform="translate(-979.494 -847.052)">
    <g id="undraw_nakamoto_-2-iv6" transform="translate(753 847.052)">
      <rect id="Rectangle_23" data-name="Rectangle 23" width="2" height="107" transform="translate(313.494 117)" fill="#3f3d56"/>
      <rect id="Rectangle_24" data-name="Rectangle 24" width="2" height="94.149" transform="translate(313.494 255.85)" fill="#3f3d56"/>
      <rect id="Rectangle_25" data-name="Rectangle 25" width="155" height="2" transform="translate(310.494 365)" fill="#3f3d56"/>
      <rect id="Rectangle_26" data-name="Rectangle 26" width="2" height="85" transform="translate(244.494 392)" fill="#3f3d56"/>
      <rect id="Rectangle_27" data-name="Rectangle 27" width="235" height="2" transform="translate(262.494 492)" fill="#3f3d56"/>
      <path id="Path_498" data-name="Path 498" d="M623.247,551.052" transform="translate(-109.753 -74.052)" fill="none" stroke="#3f3d56" stroke-miterlimit="10" stroke-width="2"/>
      <path id="Path_499" data-name="Path 499" d="M623.247,469.052" transform="translate(-109.753 -74.052)" fill="none" stroke="#3f3d56" stroke-miterlimit="10" stroke-width="2"/>
      <rect id="Rectangle_28" data-name="Rectangle 28" width="2" height="101" transform="translate(691.494 49)" fill="#3f3d56"/>
      <rect id="Rectangle_29" data-name="Rectangle 29" width="147.034" height="2" transform="translate(529.46 166)" fill="#3f3d56"/>
      <rect id="Rectangle_30" data-name="Rectangle 30" width="2" height="135" transform="translate(512.494 182)" fill="#3f3d56"/>
      <path id="Path_500" data-name="Path 500" d="M424.247,331.052a17,17,0,1,1,17-17,17,17,0,0,1-17,17Zm0-32a15,15,0,1,0,15,15A15,15,0,0,0,424.247,299.052Z" transform="translate(-109.753 -74.052)" fill="#3f3d56"/>
      <path id="Path_501" data-name="Path 501" d="M356.247,584.052a17,17,0,1,1,17-17A17,17,0,0,1,356.247,584.052Zm0-32a15,15,0,1,0,15,15A15,15,0,0,0,356.247,552.052Z" transform="translate(-109.753 -74.052)" fill="#3f3d56"/>
      <circle id="Ellipse_4" data-name="Ellipse 4" cx="16" cy="16" r="16" transform="translate(299.494 350)" fill="#0137c1"/>
      <rect id="Rectangle_31" data-name="Rectangle 31" width="166" height="2" transform="translate(728.494 239)" fill="#3f3d56"/>
      <rect id="Rectangle_32" data-name="Rectangle 32" width="2" height="94.149" transform="translate(711.494 255.85)" fill="#3f3d56"/>
      <rect id="Rectangle_33" data-name="Rectangle 33" width="133" height="2" transform="translate(562.494 365)" fill="#3f3d56"/>
      <rect id="Rectangle_34" data-name="Rectangle 34" width="138" height="2" transform="translate(796.494 374)" fill="#3f3d56"/>
      <rect id="Rectangle_35" data-name="Rectangle 35" width="2" height="85" transform="translate(780.494 392)" fill="#3f3d56"/>
      <rect id="Rectangle_36" data-name="Rectangle 36" width="235" height="2" transform="translate(529.494 492)" fill="#3f3d56"/>
      <rect id="Rectangle_37" data-name="Rectangle 37" width="2" height="62" transform="translate(512.494 415)" fill="#3f3d56"/>
      <circle id="Ellipse_5" data-name="Ellipse 5" cx="16" cy="16" r="16" transform="translate(696.494 224)" fill="#0137c1"/>
      <path id="Path_502" data-name="Path 502" d="M802.247,257.052a17,17,0,1,1,17-17A17,17,0,0,1,802.247,257.052Zm0-32a15,15,0,1,0,15,15,15,15,0,0,0-15-15Z" transform="translate(-109.753 -74.052)" fill="#3f3d56"/>
      <path id="Path_503" data-name="Path 503" d="M623.247,257.052a17,17,0,1,1,17-17A17,17,0,0,1,623.247,257.052Zm0-32a15,15,0,1,0,15,15,15,15,0,0,0-15-15Z" transform="translate(-109.753 -74.052)" fill="#3f3d56"/>
      <path id="Path_504" data-name="Path 504" d="M890.247,467.052a17,17,0,1,1,17-17A17,17,0,0,1,890.247,467.052Zm0-32a15,15,0,1,0,15,15A15,15,0,0,0,890.247,435.052Z" transform="translate(-109.753 -74.052)" fill="#3f3d56"/>
      <circle id="Ellipse_6" data-name="Ellipse 6" cx="16" cy="16" r="16" transform="translate(764.494 477)" fill="#0137c1"/>
      <path id="Path_505" data-name="Path 505" d="M623.247,584.052a17,17,0,1,1,17-17A17,17,0,0,1,623.247,584.052Zm0-32a15,15,0,1,0,15,15A15,15,0,0,0,623.247,552.052Z" transform="translate(-109.753 -74.052)" fill="#3f3d56"/>
      <path id="Path_506" data-name="Path 506" d="M821.247,457.052a17,17,0,1,1,17-17A17,17,0,0,1,821.247,457.052Zm0-32a15,15,0,1,0,15,15A15,15,0,0,0,821.247,425.052Z" transform="translate(-109.753 -74.052)" fill="#3f3d56"/>
      <path id="Path_507" data-name="Path 507" d="M356.247,416.052a20,20,0,1,0,20,20,20,20,0,0,0-20-20Zm0,6a6,6,0,1,1-6,6,6,6,0,0,1,6-6Zm0,28.885a14.57,14.57,0,0,1-12-6.4c.1-4,8-6.2,12-6.2s11.9,2.2,12,6.2a14.594,14.594,0,0,1-12,6.4Z" transform="translate(-109.753 -74.052)" fill="#0d0d27"/>
      <path id="Path_508" data-name="Path 508" d="M425.247,143.052a20,20,0,1,0,20,20,20,20,0,0,0-20-20Zm0,6a6,6,0,1,1-6,6A6,6,0,0,1,425.247,149.052Zm0,28.885a14.57,14.57,0,0,1-12-6.4c.1-4,8-6.2,12-6.2s11.9,2.2,12,6.2a14.594,14.594,0,0,1-12,6.4Z" transform="translate(-109.753 -74.052)" fill="#0d0d27"/>
      <path id="Path_509" data-name="Path 509" d="M802.247,74.052a20,20,0,1,0,20,20,20,20,0,0,0-20-20Zm0,6a6,6,0,1,1-6,6A6,6,0,0,1,802.247,80.052Zm0,28.885a14.57,14.57,0,0,1-12-6.4c.1-4,8-6.2,12-6.2s11.9,2.2,12,6.2a14.594,14.594,0,0,1-12,6.4Z" transform="translate(-109.753 -74.052)" fill="#0d0d27"/>
      <path id="Path_510" data-name="Path 510" d="M1032.247,293.052a20,20,0,1,0,20,20A20,20,0,0,0,1032.247,293.052Zm0,6a6,6,0,1,1-6,6,6,6,0,0,1,6-6Zm0,28.885a14.57,14.57,0,0,1-12-6.4c.1-4,8-6.2,12-6.2s11.9,2.2,12,6.2a14.594,14.594,0,0,1-12,6.4Z" transform="translate(-109.753 -74.052)" fill="#0d0d27"/>
      <path id="Path_511" data-name="Path 511" d="M1070.247,428.052a20,20,0,1,0,20,20A20,20,0,0,0,1070.247,428.052Zm0,6a6,6,0,1,1-6,6,6,6,0,0,1,6-6Zm0,28.885a14.57,14.57,0,0,1-12-6.4c.1-4,8-6.2,12-6.2s11.9,2.2,12,6.2a14.594,14.594,0,0,1-12,6.4Z" transform="translate(-109.753 -74.052)" fill="#0d0d27"/>
      <path id="Path_512" data-name="Path 512" d="M628.466,427.719l-5.99,34.637c6.791,2.441,27.721,12.4,31.112-7.2C657.123,434.718,635.256,430.16,628.466,427.719Z" transform="translate(-130.475 -74.052)" fill="#0137c1"/>
    </g>
    <circle id="Ellipse_8" data-name="Ellipse 8" cx="40" cy="40" r="40" transform="translate(1227 1172)" fill="#0137c1"/>
    <path id="some" d="M28.875,14.736,21,28.611,13.125,14.736Zm7.876-4.625H5.249L21,37.861ZM0,.861,2.626,5.485H39.375L42,.861Z" transform="translate(1246 1193.14)" fill="#fff"/>
  </g>
</svg>
